<svg width="115" height="26" viewBox="0 0 115 26" fill="none" xmlns="http://www.w3.org/2000/svg">
<path d="M41.8741 0.175938C41.7204 0.329877 41.6985 1.61637 41.6985 12.7V25.0592L41.9509 25.2351C42.1594 25.378 42.6641 25.4 45.6489 25.4C47.9203 25.389 49.1493 25.345 49.2371 25.2681C49.3469 25.1801 49.3798 22.7171 49.3798 12.689C49.3798 0.483817 49.3798 0.21992 49.1713 0.109964C49.0286 0.0439896 47.668 6.83963e-06 45.4952 6.83963e-06C42.4995 6.83963e-06 42.0167 0.0219982 41.8741 0.175938Z" fill="black"/>
<path d="M0.142653 1.39638C0.0329198 1.44036 0 3.92538 0 13.3047C0 25.0591 0 25.169 0.219466 25.29C0.362118 25.367 1.71183 25.3999 4.33445 25.378C7.65935 25.345 8.25191 25.323 8.33969 25.18C8.40553 25.0811 8.44943 23.6077 8.44943 21.7384C8.44943 19.6932 8.49332 18.3737 8.55916 18.2418C8.66889 18.0438 8.82252 18.0328 11.9609 18.0328C13.7605 18.0328 15.3077 17.9999 15.4065 17.9669C15.5601 17.9119 15.5821 17.549 15.5821 15.02C15.5821 12.9308 15.5491 12.1062 15.4504 12.0072C15.3516 11.9082 14.4299 11.8753 11.9938 11.8753C8.82252 11.8753 8.66889 11.8643 8.55916 11.6663C8.39456 11.3585 8.41651 8.76348 8.58111 8.59855C8.67986 8.49959 9.78817 8.4666 12.9046 8.4666C16.5697 8.4666 17.1293 8.44461 17.2719 8.29067C17.4256 8.14773 17.4475 7.67491 17.4475 4.84902C17.4475 2.45196 17.4146 1.55032 17.3158 1.45136C17.2171 1.3524 15.1651 1.31941 8.72376 1.33041C4.08206 1.33041 0.208492 1.36339 0.142653 1.39638Z" fill="black"/>
<path d="M27.2686 6.77337C24.9642 7.12523 22.4733 8.03787 21.354 8.93951L21.0358 9.19242L22.5391 11.2486C23.3731 12.3812 24.0644 13.3048 24.0973 13.3048C24.1193 13.3048 24.4375 13.1619 24.7887 12.9859C25.6994 12.5241 26.709 12.2822 27.4003 12.3592C28.3221 12.4691 29.1889 12.843 29.7157 13.3598C30.2314 13.8876 30.3082 14.2724 29.9571 14.6243C29.7486 14.8332 29.595 14.8442 27.5759 14.8442C25.3812 14.8442 24.3058 14.9651 23.2853 15.328C21.354 16.0207 19.9714 17.4832 19.4776 19.3634C18.6326 22.5192 21.3321 25.609 24.9642 25.631C26.4676 25.6419 27.2906 25.3231 28.3659 24.3005C29.2109 23.4978 29.4962 23.3109 29.8583 23.3109C30.2753 23.3109 30.6155 23.7727 30.6155 24.3225C30.6155 25.2351 30.396 25.1801 34.4013 25.1801C37.6823 25.1801 37.9676 25.1691 38.0444 24.9822C38.0883 24.8832 38.0992 22.5632 38.0663 19.8472C38.0115 14.9432 38.0115 14.8882 37.7262 13.8326C36.7715 10.314 34.4122 7.88393 31.1093 7.03726C30.2534 6.81735 28.0148 6.66341 27.2686 6.77337ZM30.2863 17.3622C30.6813 18.1209 30.0229 19.9022 29.145 20.441C28.5415 20.8148 27.8283 20.7819 27.3345 20.364C26.5992 19.7483 26.72 18.5387 27.5759 17.879C28.4647 17.1973 30.0339 16.9004 30.2863 17.3622Z" fill="black"/>
<path d="M61.593 6.81729C58.1364 7.3011 55.1736 9.36829 53.7361 12.2821C52.968 13.8435 52.8363 14.4153 52.8473 16.3286C52.8473 17.8789 52.8692 18.0439 53.1875 18.9675C53.7032 20.4739 54.3177 21.4635 55.4589 22.6071C56.644 23.7946 57.6426 24.4654 58.9814 24.9931C60.3091 25.5099 61.5272 25.7299 63.0963 25.7299C64.885 25.7299 66.4871 25.356 68.0343 24.5753C68.8024 24.2015 70.229 23.1349 70.229 22.948C70.229 22.871 69.7571 22.1673 69.1755 21.3866C66.4212 17.648 66.7285 17.9999 66.4651 18.1978C66.3334 18.2968 65.9494 18.5057 65.6202 18.6706C65.0825 18.9345 64.8959 18.9675 63.9193 18.9675C62.8988 18.9675 62.7781 18.9455 62.1636 18.6157C61.8015 18.4287 61.3735 18.1318 61.2089 17.9559C60.8358 17.5601 60.4737 16.7574 60.4627 16.3176C60.4627 15.7458 60.7919 14.9761 61.2418 14.5253C61.9332 13.8435 62.5477 13.5906 63.7218 13.5466C64.874 13.5027 65.5434 13.6676 66.2566 14.1844L66.6956 14.5033L68.4732 12.0842C69.5047 10.6768 70.229 9.5992 70.1851 9.51123C70.0095 9.03842 67.8697 7.75192 66.5639 7.3121C65.1264 6.83928 62.9647 6.61937 61.593 6.81729Z" fill="black"/>
<path d="M80.9169 6.87223C76.8897 7.49898 73.6965 10.2149 72.6211 13.9315C72.4126 14.6462 72.3688 15.042 72.3797 16.3285C72.3907 17.703 72.4236 17.9669 72.6979 18.8025C73.2576 20.5179 73.9599 21.6614 75.2328 22.8819C76.7471 24.3334 78.2943 25.1141 80.5329 25.5649C81.7948 25.8288 84.1979 25.7518 85.427 25.4109C86.3926 25.147 87.8959 24.4543 88.6531 23.9375C89.3993 23.4207 90.727 22.1122 91.1879 21.4415C91.7695 20.5838 92.2194 19.6492 92.5157 18.6926C92.8559 17.593 92.8888 15.053 92.5706 14.0194C91.3854 10.127 88.3897 7.54297 84.2748 6.87223C83.0567 6.67431 82.1459 6.67431 80.9169 6.87223ZM83.6932 13.7665C84.7905 14.2723 85.3721 15.7677 84.999 17.0872C84.5491 18.6266 82.947 19.4403 81.5753 18.8135C80.6097 18.3737 79.8854 17.0432 80.05 15.9657C80.3354 13.9754 82.0033 12.9748 83.6932 13.7665Z" fill="black"/>
<path d="M107.889 6.99327C106.957 7.23517 106.134 7.68599 105.53 8.25777C105.014 8.75257 104.916 8.79656 104.444 8.79656C103.829 8.79656 103.643 8.57664 103.73 7.9279C103.752 7.70798 103.73 7.4221 103.687 7.27915L103.588 7.03725H99.9337C97.2343 7.03725 96.2467 7.07023 96.1479 7.1692C95.9833 7.33413 95.9614 24.9162 96.126 25.1801C96.2137 25.3231 96.7734 25.3451 99.813 25.378C102.293 25.4 103.434 25.367 103.533 25.2901C103.654 25.1911 103.687 24.1135 103.719 19.9792C103.752 14.9761 103.763 14.7782 103.983 14.4044C104.499 13.5247 105.64 13.2388 106.452 13.7886C107.22 14.3164 107.209 14.2284 107.209 19.9352C107.209 24.5534 107.231 25.0592 107.396 25.1911C107.538 25.3121 108.306 25.356 111.094 25.378C114.583 25.411 114.616 25.411 114.813 25.1691C114.989 24.9492 115 24.4764 115 18.7476C115 15.1191 114.956 12.1942 114.89 11.6884C114.638 9.79716 113.343 8.03785 111.642 7.26816C110.622 6.80634 109.009 6.68539 107.889 6.99327Z" fill="black"/>
</svg>
