<svg width="143" height="31" viewBox="0 0 143 31" fill="none" xmlns="http://www.w3.org/2000/svg">
<path d="M51.6069 0.85675H59.4601V10.7937H67.2066V0.85675H75.0598V29.3315H67.2066V18.6468H59.4601V29.3315H51.6069V0.85675" fill="black"/>
<path d="M77.0901 0.85675H84.9433V21.9858H93.5978V29.3315C88.0951 29.3315 82.5924 29.3315 77.0901 29.3315V0.85675" fill="black"/>
<path d="M95.2004 0.85675C100.489 0.85675 105.778 0.85675 111.067 0.85675V7.40114H103.054V11.7819H111.067V18.3264H103.054V22.7872H111.067V29.3315C105.778 29.3315 100.489 29.3315 95.2004 29.3315V0.85675" fill="black"/>
<path d="M112.83 0.85675H120.684C122.135 0.889084 123.58 0.99228 125.011 1.25798C129.498 2.2152 133.131 7.05358 131.956 11.6794C131.422 14.3909 129.445 16.4645 127.255 18.0596C129.984 21.7878 132.652 25.5607 135.322 29.3315H126.881C124.747 26.5858 122.714 23.7391 120.684 20.939V29.3315H112.83V0.85675V0.85675ZM120.684 7.43967V12.9955C121.973 12.9375 123.462 13.2182 124.423 12.2111C125.599 11.307 125.599 9.28676 124.477 8.32974C123.462 7.371 122.016 7.51368 120.684 7.43967" fill="black"/>
<path d="M50.4853 14.8271C50.4853 6.63895 43.9026 0 35.786 0C27.6691 0 21.0864 6.63895 21.0864 14.8271C21.0864 23.0153 27.6691 29.6543 35.786 29.6543C43.9026 29.6543 50.4853 23.0153 50.4853 14.8271V14.8271ZM35.786 7.53822C39.4195 7.53822 42.3663 10.8018 42.3663 14.827C42.3663 18.8523 39.4195 22.116 35.786 22.116C32.1522 22.116 29.2054 18.8523 29.2054 14.827C29.2054 10.8018 32.1522 7.53822 35.786 7.53822" fill="black"/>
<path d="M25.2692 0.868461C21.5666 5.40336 17.7929 9.88159 14.1039 14.4263L26.9254 29.3315H16.5611L7.85296 19.1308V29.3315H0V0.85675H7.85296V9.26194L15.2957 0.868461H25.2692" fill="black"/>
<path d="M140.111 25.1935C140.909 25.1935 141.631 25.517 142.154 26.0397C142.677 26.5622 143 27.2848 143 28.0824C143 28.8802 142.677 29.6026 142.154 30.1253C141.631 30.6478 140.909 30.9715 140.111 30.9715C139.313 30.9715 138.591 30.6478 138.068 30.1253C137.546 29.6026 137.222 28.8802 137.222 28.0824C137.222 27.2848 137.546 26.5622 138.068 26.0397C138.591 25.517 139.313 25.1935 140.111 25.1935ZM141.753 26.4403C141.333 26.02 140.752 25.7599 140.111 25.7599C139.47 25.7599 138.889 26.02 138.469 26.4403C138.048 26.8604 137.789 27.4412 137.789 28.0824C137.789 28.7237 138.048 29.3044 138.469 29.7247C138.889 30.1448 139.47 30.4049 140.111 30.4049C140.752 30.4049 141.333 30.1448 141.753 29.7247C142.173 29.3044 142.434 28.7237 142.434 28.0824C142.434 27.4412 142.173 26.8604 141.753 26.4403" fill="black"/>
<path d="M141.322 29.5477H140.764L140.309 28.343H139.566V29.5477H139.038V26.6174H140.309C140.662 26.6174 140.922 26.6972 141.088 26.8571C141.254 27.0161 141.337 27.2227 141.337 27.4761C141.337 27.8528 141.161 28.1115 140.809 28.2529L141.322 29.5477V29.5477ZM139.566 27.9202H140.223C140.413 27.9202 140.555 27.8806 140.648 27.8C140.741 27.7202 140.787 27.6096 140.787 27.4695C140.787 27.3407 140.742 27.2366 140.65 27.1574C140.559 27.0776 140.43 27.038 140.266 27.038H139.566V27.9202" fill="black"/>
</svg>
