<svg width="97" height="63" viewBox="0 0 97 63" fill="none" xmlns="http://www.w3.org/2000/svg">
<path d="M31.267 0.00421603C29.4304 0.0619985 27.585 0.69921 26.1194 1.64821C20.0522 4.85967 19.1219 11.7289 17.3873 17.5492C15.5428 17.6042 13.7576 17.0414 12.1319 16.6598C11.8085 17.2592 11.5423 17.9211 11.4312 18.5733C13.1658 19.1727 14.896 19.785 16.8483 19.8939C16.0905 23.321 14.9445 26.5745 13.749 29.7309C13.3717 30.3842 13.3199 31.3178 12.671 31.8062C9.2579 30.9901 4.81857 29.8452 1.56722 31.8601C0.535546 32.6212 -0.0552157 33.7057 0.00407609 34.9594C0.163625 36.6454 1.23627 37.8906 2.69916 38.6517C7.30343 40.8821 12.8952 39.2974 16.6866 36.5225C19.6146 37.5553 22.4897 38.5881 25.4726 39.4602C34.6283 41.9073 44.0428 44.099 54.1213 43.7723V43.8262C68.7556 43.7702 83.1818 41.5408 96.7844 38.0048L97 37.8431L96.434 35.714C90.9609 36.9635 85.3314 38.0005 79.5898 38.5439C68.2629 39.2521 56.9565 39.5766 45.7396 38.7595C36.42 38.1073 27.6427 36.1442 19.0852 33.4771C21.9 29.3439 22.9058 24.3861 24.4215 19.5974C29.3524 18.8364 33.6527 15.8621 36.1451 11.5661C37.3352 9.1179 38.5254 5.90428 37.1692 3.13051C36.7369 2.25838 36.0955 1.70966 35.3366 1.0553C34.1278 0.270964 32.6955 -0.0407077 31.267 0.00421603ZM32.0755 2.9688C32.7256 3.02271 33.3659 2.96104 33.8543 3.50782C35.3161 4.91896 34.8827 7.48252 34.1777 9.16749C32.6609 13.1411 29.0506 16.0302 25.0953 17.0641C26.0159 13.0926 26.9215 9.1718 28.7606 5.58303C29.4688 4.44032 30.5577 3.07876 32.0755 2.9688ZM53.4745 10.6498C52.1134 10.6398 50.966 11.111 50.1595 12.159C49.6744 12.8651 49.5666 14.12 50.1056 14.8811C50.7578 15.806 51.8531 16.1725 52.9354 16.2825C54.4555 16.3892 56.2989 16.0798 57.1128 14.6115C57.5429 13.9044 57.4395 12.9212 57.005 12.2129C56.3021 11.233 55.1519 10.9484 54.0674 10.6767C53.8642 10.6562 53.6689 10.6512 53.4745 10.6498V10.6498ZM37.7082 18.5733C35.6968 18.5458 33.6193 18.9716 31.9677 19.5974C28.8242 20.7962 26.0655 24.1737 26.0655 27.7635C26.1205 29.8301 27.3516 31.5259 28.9762 32.6147C34.3405 35.7701 41.0243 33.2044 45.8474 30.6473C45.8991 30.7023 46.0112 30.7562 45.9552 30.809C46.174 32.3333 47.6186 33.6873 49.0276 34.0161C52.7144 34.5595 56.0186 33.0405 58.7838 30.809C59.9211 32.9305 62.3564 34.0161 64.7938 34.2317L64.8477 34.1778C68.2068 34.2856 71.0367 32.7139 73.472 30.6473C74.2309 32.2277 75.5407 33.2572 77.0025 33.9083C79.8205 34.8322 82.7851 33.9256 84.8991 31.914C85.1654 32.6751 85.8693 33.365 86.5161 33.8005C89.7179 35.3227 93.1374 33.4383 95.5716 31.8062C95.5188 31.099 95.301 30.3842 95.0326 29.7309C94.0009 30.2743 92.5887 31.086 91.4481 30.2161C91.2358 29.8894 91.073 29.5736 91.1247 29.138L93.9007 19.274C91.9494 19.2201 89.8397 19.1641 87.7828 19.2201L87.2977 20.7563C87.0282 20.3758 86.708 19.9758 86.3275 19.6513C84.2135 18.1281 81.1659 18.6197 78.943 19.5435C75.5871 21.1768 72.9362 24.2761 72.879 28.1948C71.0927 29.7698 68.7707 31.5733 66.2222 30.5395C64.9727 29.8312 65.0072 28.1527 65.225 26.8472C65.6045 24.7806 66.2675 22.4876 68.3243 21.5649C69.6794 20.9633 70.986 21.8527 71.9627 22.7237C72.2333 21.7988 72.5567 20.8728 72.7173 19.8939C69.9543 18.099 65.6713 18.6423 62.9611 20.2173C60.1432 21.9066 57.7564 24.8194 57.9752 28.4104C57.4858 28.8998 56.9004 29.2954 56.3043 29.6231C55.3826 30.0565 54.0199 30.8165 53.0432 29.8927C52.8276 29.5671 52.7737 29.1962 52.7737 28.7607C53.6405 25.5536 54.5697 22.2677 55.4419 19.0584C53.1661 19.0584 50.7643 19.0034 48.5964 19.1123L46.1169 27.7096C44.2778 28.9612 42.2209 29.8323 40.1069 30.3778C38.0457 30.8661 35.3732 31.3081 33.6387 29.8927C33.1492 29.3493 32.9929 28.5785 33.1536 27.8174C36.7854 28.1441 40.7418 27.6547 43.0176 24.9876C43.6687 23.9549 44.1549 22.492 43.6105 21.2414L43.0715 20.379C41.663 19.0999 39.7197 18.6008 37.7082 18.5733ZM37.816 20.5407C38.3576 20.5609 38.838 20.7779 39.0558 21.3492C39.3285 22.7647 38.6871 24.1715 37.4926 25.0954C36.3553 25.7487 34.9409 26.0969 33.5309 25.8231C34.1281 24.0303 34.6801 22.0618 36.2529 20.8641C36.6847 20.7014 37.2745 20.5205 37.816 20.5407ZM84.1714 21.3223C84.9389 21.3066 85.545 21.694 85.9232 22.2656C86.6875 24.4421 85.3325 26.3977 84.8452 28.3565C84.4097 29.4992 83.3995 30.6979 82.0423 31.0246C81.3383 31.0785 80.615 30.8133 80.2366 30.2161C79.4248 27.9856 80.5816 25.8134 81.2338 23.8018C81.8289 22.714 82.6309 21.7859 83.8211 21.3492C83.9361 21.3292 84.0618 21.3245 84.1714 21.3224V21.3223ZM5.42119 33.4502C7.13571 33.333 8.92937 34.1326 10.5149 34.5821L10.8922 34.7438C9.21047 36.3231 6.48628 37.5014 3.99279 36.4686C3.5605 36.1959 2.96866 35.7733 2.96866 35.175C3.02584 34.6295 3.29423 34.1821 3.72329 33.9083C4.265 33.6232 4.84967 33.4892 5.42119 33.4502ZM16.8753 47.8419C12.9825 47.8419 12.2333 50.7709 11.6199 53.6633C10.7025 57.9959 10.7963 59.6463 14.8001 59.6463C15.7477 59.6463 17.4175 59.3962 18.0881 59.269L19.3278 53.5016H15.6355L15.2852 55.2264H16.5788L16.0398 57.7867C15.6506 57.9129 15.1968 58.0023 14.8001 58.0023C13.445 58.0023 13.2369 57.3695 13.9915 53.798C14.4637 51.5751 14.8777 49.5398 16.3632 49.5398C17.6234 49.5398 17.6008 50.4949 17.3604 51.5611H19.7321C20.3843 49.1625 19.2071 47.8419 16.8753 47.8419ZM61.1554 49.2164L58.7299 50.2136L58.4604 51.4802H57.571L57.2745 52.8547H58.1908L57.1398 57.7598C57.0352 58.2492 57.0266 59.5385 58.9455 59.5385C59.4791 59.5385 59.7939 59.489 60.1044 59.4577L60.4008 58.0832C60.2812 58.1167 60.1389 58.1101 59.9966 58.1101C59.2743 58.1101 59.3573 57.7134 59.4845 57.113L60.4008 52.8547H61.5597L61.8292 51.4802H60.6973L61.1554 49.2164ZM24.7988 51.3185C21.8741 51.3185 21.1626 53.1835 20.7023 55.3612C20.1741 57.8579 20.1848 59.6194 23.047 59.6194C24.0798 59.6194 24.9336 59.3294 25.5534 58.8378C26.1949 58.3441 26.6304 57.6337 26.8471 56.7626H24.5832C24.442 57.4245 24.1294 58.191 23.3435 58.191C22.3732 58.191 22.6341 56.7669 22.8314 55.8193H27.0896C27.7073 53.2612 27.7839 51.3185 24.7988 51.3185ZM32.6954 51.3185C29.7707 51.3185 29.0592 53.1825 28.5989 55.3612C28.0674 57.8557 28.0566 59.6194 30.9166 59.6194C33.7767 59.6194 34.5421 57.8557 35.0671 55.3612C35.5295 53.1825 35.619 51.3185 32.6954 51.3185ZM40.1877 51.3185C38.7582 51.3185 36.9439 51.8554 36.5763 53.5824C36.0405 56.1212 40.0346 55.7417 39.6757 57.4364C39.5614 57.9743 39.142 58.2449 38.7054 58.2449C38.2624 58.2449 38.0467 58.1209 37.9778 57.8676C37.9195 57.6164 37.967 57.2617 38.0586 56.8974H35.8755C35.2783 59.1267 36.4728 59.6194 38.4089 59.6194C40.2513 59.6194 41.6182 58.5845 41.9125 57.1938C42.458 54.6378 38.52 54.6874 38.7862 53.4207C38.9005 52.8838 39.2444 52.5852 39.7295 52.5852C39.9602 52.5852 40.1564 52.6025 40.2685 52.7469C40.3968 52.8882 40.3849 53.2159 40.2685 53.7711H42.4246C42.9162 52.0451 41.698 51.3185 40.1877 51.3185H40.1877ZM54.2021 51.3185C52.7748 51.3185 50.9573 51.8554 50.5907 53.5824C50.0517 56.1212 54.048 55.7417 53.6901 57.4364C53.5758 57.9743 53.1306 58.2449 52.6929 58.2449C52.2487 58.2449 52.0374 58.1209 51.9652 57.8676C51.9092 57.6164 51.9803 57.2617 52.073 56.8974H49.89C49.2928 59.1267 50.484 59.6194 52.4234 59.6194C54.2625 59.6194 55.6036 58.5845 55.9 57.1938C56.4412 54.6378 52.5333 54.6874 52.8007 53.4207C52.915 52.8838 53.2556 52.5852 53.744 52.5852C53.9725 52.5852 54.145 52.6025 54.256 52.7469C54.3886 52.8882 54.3746 53.2159 54.256 53.7711H56.439C56.9306 52.0451 55.7135 51.3185 54.2021 51.3185ZM65.9527 51.3185C63.028 51.3185 62.3143 53.1835 61.8562 55.3612C61.3279 57.8579 61.3398 59.6194 64.2009 59.6194C65.2369 59.6194 66.0842 59.3294 66.7073 58.8378C67.3466 58.3441 67.7605 57.6337 67.974 56.7626H65.7371C65.5969 57.4245 65.2789 58.191 64.4973 58.191C63.5217 58.191 63.7869 56.7669 63.9853 55.8193H68.2435C68.8644 53.2612 68.9388 51.3185 65.9527 51.3185ZM74.7117 51.3185C73.8751 51.3185 73.2337 51.5762 72.6365 52.2888H72.6096L72.7713 51.4802H70.5613L68.8634 59.4577H71.1003L72.2592 53.9597C72.4112 53.2504 72.6527 52.693 73.3642 52.693C74.0757 52.693 74.0811 53.2504 73.9302 53.9597L72.7713 59.4577H74.9543L76.1132 53.9597C76.263 53.2504 76.5067 52.693 77.2182 52.693C77.9307 52.693 77.9361 53.2504 77.7841 53.9597L76.6252 59.4577H78.8352L80.1828 53.0703C80.4199 51.9632 79.6211 51.3185 78.5657 51.3185C77.6526 51.3185 76.9724 51.6452 76.3018 52.3427C76.0722 51.7077 75.5019 51.3185 74.7117 51.3185H74.7117ZM84.8452 51.3185C83.4136 51.3185 81.6003 51.8554 81.2338 53.5824C80.6991 56.1212 84.6899 55.7417 84.3331 57.4364C84.2178 57.9743 83.7758 58.2449 83.3359 58.2449C82.895 58.2449 82.6794 58.1209 82.6083 57.8676C82.5544 57.6164 82.6202 57.2617 82.7161 56.8974H80.5331C79.9369 59.1267 81.1271 59.6194 83.0664 59.6194C84.9077 59.6194 86.2703 58.5845 86.57 57.1938C87.1112 54.6378 83.1742 54.6874 83.4437 53.4207C83.558 52.8838 83.903 52.5852 84.387 52.5852C84.6166 52.5852 84.787 52.6025 84.8991 52.7469C85.0306 52.8882 85.0144 53.2159 84.8991 53.7711H87.0821C87.5726 52.0451 86.3512 51.3185 84.8452 51.3185ZM43.7452 51.4802L44.2034 59.5385L42.7211 62.5031H45.0389L50.456 51.4802H48.2999L45.9282 57.086H45.9013L45.9552 51.4802H43.7453H43.7452ZM24.5024 52.693C25.5513 52.693 25.285 53.8066 25.1222 54.5796H23.1009C23.2454 53.9015 23.4815 52.693 24.5024 52.693ZM65.6562 52.693C66.7073 52.693 66.4378 53.8066 66.2761 54.5796H64.2548C64.3992 53.9015 64.6342 52.693 65.6562 52.693ZM32.372 52.7469C33.3131 52.7469 33.2323 53.5964 32.8841 55.2534C32.3677 57.6843 32.0572 58.191 31.2401 58.191C30.424 58.191 30.3226 57.6843 30.8358 55.2534C31.1872 53.5964 31.4287 52.7469 32.372 52.7469Z" fill="#FF0029"/>
</svg>
