<svg width="183" height="48" viewBox="0 0 183 48" fill="none" xmlns="http://www.w3.org/2000/svg">
<path d="M10.5075 38.1835V36.6175C10.5075 36.6175 10.3248 35.7941 9.52274 35.7941H0.878164C0.878164 35.7941 0 35.8547 0 36.6932V40.6181C0 40.6181 0.0253804 41.4416 1.03045 41.4416H7.25373V42.5124H0V44.1441C0 44.1441 0.111674 44.9523 0.878164 44.9523H9.63949C9.63949 44.9523 10.5075 44.8512 10.5075 43.9622V40.1585C10.5075 40.1585 10.3908 39.2189 9.44153 39.2189H3.23347V38.1885L10.5075 38.1835Z" fill="#231F20"/>
<path d="M18.4417 39.0369H16.1472V41.6587H18.4417C18.594 41.6587 18.7259 41.5374 18.7259 41.3808V39.3148C18.7259 39.1632 18.599 39.0369 18.4417 39.0369Z" fill="#ED3024"/>
<path d="M19.4213 35.7991H12.0559V44.9572H19.6345C19.6345 44.9572 22.7868 44.7753 22.7868 41.5475V38.8603C22.7868 38.8603 22.5329 35.7991 19.4213 35.7991ZM19.5786 41.4414C19.5786 42.2547 18.7209 42.4821 18.7209 42.4821H15.2944V38.1884H18.4569C19.3908 38.1884 19.5786 39.1683 19.5786 39.1683V41.4414ZM27.4466 42.4821V35.8042H25.0557C24.5888 35.8042 24.2132 36.1779 24.2132 36.6376V44.1237C24.2132 44.5835 24.5938 44.9572 25.0557 44.9572H33.538C34.0049 44.9572 34.3805 44.5884 34.3805 44.1237V42.4821H27.4466ZM41.0861 39.2289V41.4263H42.9845V42.4821H38.6952V38.1833H46.1927V36.6124C46.1927 36.1527 45.8169 35.7788 45.3499 35.7788H36.3501C35.8831 35.7788 35.5075 36.1476 35.5075 36.6124V44.1237C35.5075 44.5835 35.8831 44.9572 36.3501 44.9572H45.3499C45.8169 44.9572 46.1927 44.5884 46.1927 44.1237V39.2289H41.0861Z" fill="#231F20"/>
<path d="M23.6138 0L45.9689 35.3545L23.6138 24.8931V0Z" fill="#ED3024"/>
<path d="M22.553 0L0.30957 35.3545L22.553 24.8931V0Z" fill="#231F20"/>
<path d="M74.3122 22.2031L73.3162 17.5478H73.2874L72.2913 22.2031H74.3122ZM74.5865 15.7495L77.3148 26.1042H75.1495L74.6731 23.9144H71.9304L71.4541 26.1042H69.2888L72.0171 15.7495H74.5865ZM78.2626 19.6652V26.1042H80.2546V19.6652H81.4094V18.302H80.2546V17.6203C80.2546 17.398 80.3123 17.2385 80.4278 17.1418C80.5433 17.045 80.7406 16.9967 81.0197 16.9967H81.2073C81.2939 16.9967 81.3614 17.0015 81.4094 17.0112V15.59C81.0534 15.561 80.6973 15.5465 80.3412 15.5465C80.0236 15.5465 79.7349 15.5803 79.4751 15.648C79.2153 15.706 78.994 15.8076 78.8111 15.9526C78.6379 16.0976 78.5032 16.2909 78.4069 16.5327C78.3108 16.7744 78.2626 17.0693 78.2626 17.4173V18.302H77.2521V19.6652H78.2626ZM81.9565 18.302V26.1042H83.9486V21.42C83.9486 21.1589 83.9919 20.9414 84.0785 20.7673C84.1651 20.5836 84.2806 20.4386 84.4249 20.3323C84.5693 20.2163 84.7281 20.134 84.9013 20.0857C85.0745 20.0374 85.2477 20.0132 85.4209 20.0132C85.5269 20.0132 85.6279 20.018 85.7241 20.0277C85.83 20.0277 85.9358 20.0325 86.0417 20.0422V18.1279C85.9839 18.1182 85.9214 18.1134 85.854 18.1134C85.7963 18.1037 85.7385 18.0989 85.6808 18.0989C85.2671 18.0989 84.9157 18.2149 84.627 18.447C84.3383 18.6693 84.0929 18.9691 83.8908 19.3461H83.8619V18.302H81.9565ZM86.6914 15.6335V17.3448H88.6834V15.6335H86.6914ZM86.6914 18.302V26.1042H88.6834V18.302H86.6914ZM93.6813 21.1154H95.5867C95.5867 20.1873 95.351 19.4524 94.8794 18.911C94.4175 18.3697 93.7246 18.0989 92.8008 18.0989C92.3388 18.0989 91.9155 18.1617 91.5305 18.2874C91.1456 18.4132 90.8136 18.6355 90.5344 18.9546C90.2554 19.2639 90.0389 19.6845 89.8849 20.2163C89.731 20.7383 89.6539 21.4007 89.6539 22.2031C89.6539 22.9862 89.7165 23.6436 89.8416 24.1754C89.9667 24.6975 90.1496 25.118 90.3901 25.4371C90.6404 25.7464 90.9483 25.964 91.3139 26.0897C91.6893 26.2057 92.1272 26.2637 92.6275 26.2637C93.6862 26.2637 94.4416 25.9979 94.8939 25.4661C95.3558 24.9247 95.5867 24.1416 95.5867 23.1167H93.6813C93.6813 23.7548 93.6044 24.2189 93.4503 24.5089C93.2965 24.799 93.0511 24.944 92.7141 24.944C92.4929 24.944 92.31 24.8957 92.1656 24.799C92.0309 24.6927 91.9251 24.5282 91.848 24.3059C91.7711 24.0836 91.7181 23.8031 91.6893 23.4648C91.6604 23.1167 91.6459 22.7009 91.6459 22.2176C91.6459 21.7632 91.6604 21.3717 91.6893 21.0429C91.7181 20.7046 91.7711 20.429 91.848 20.2163C91.9251 19.9939 92.0406 19.8295 92.1945 19.7232C92.3485 19.6072 92.5458 19.5492 92.7863 19.5492C92.9789 19.5492 93.1328 19.5974 93.2482 19.6942C93.3637 19.7812 93.4503 19.902 93.5081 20.0567C93.5755 20.2018 93.6188 20.3661 93.638 20.5498C93.6669 20.7336 93.6813 20.9221 93.6813 21.1154ZM100.103 22.2031V23.7403C100.103 23.9531 100.065 24.1367 99.988 24.2914C99.9109 24.4462 99.8099 24.5717 99.6849 24.6685C99.5694 24.7652 99.4395 24.8377 99.2951 24.886C99.1508 24.9247 99.0112 24.944 98.8765 24.944C98.607 24.944 98.4146 24.8377 98.2991 24.625C98.1836 24.4122 98.1259 24.1561 98.1259 23.8563C98.1259 23.5083 98.2125 23.2327 98.3857 23.0297C98.5589 22.8267 98.8476 22.6817 99.2518 22.5946C99.3768 22.5656 99.5164 22.5221 99.6704 22.4641C99.8243 22.3964 99.9687 22.3094 100.103 22.2031ZM96.4658 20.6948H98.2558V20.4773C98.2558 20.168 98.3327 19.9214 98.4868 19.7377C98.6406 19.5539 98.8716 19.4621 99.1796 19.4621C99.5164 19.4621 99.7521 19.5492 99.887 19.7232C100.031 19.8875 100.103 20.1195 100.103 20.4193C100.103 20.6803 100.046 20.8786 99.9303 21.0139C99.8148 21.1492 99.6078 21.2556 99.3096 21.3329L98.1836 21.6375C97.8372 21.7342 97.5388 21.8453 97.2886 21.971C97.048 22.0968 96.8459 22.2563 96.6824 22.4496C96.5283 22.6334 96.4129 22.8605 96.3359 23.1312C96.2588 23.3923 96.2204 23.7065 96.2204 24.0739C96.2204 24.3349 96.2541 24.6007 96.3215 24.8715C96.3888 25.1325 96.4947 25.3694 96.6391 25.5821C96.7834 25.7949 96.9758 25.964 97.2165 26.0897C97.457 26.2057 97.7506 26.2637 98.097 26.2637C98.5781 26.2637 98.9679 26.2057 99.2663 26.0897C99.5742 25.964 99.8437 25.6981 100.075 25.2921H100.103C100.132 25.4274 100.161 25.5676 100.19 25.7126C100.228 25.8479 100.281 25.9785 100.349 26.1042H102.254C102.158 25.8722 102.091 25.6546 102.052 25.4516C102.023 25.2486 102.009 24.9633 102.009 24.596V20.4918C102.009 20.1437 101.97 19.8247 101.893 19.5346C101.826 19.2349 101.691 18.9788 101.489 18.766C101.287 18.5533 101.003 18.389 100.638 18.2729C100.272 18.1569 99.7907 18.0989 99.1941 18.0989C98.8188 18.0989 98.4626 18.1424 98.1259 18.2294C97.7986 18.3067 97.5099 18.4422 97.2598 18.6355C97.0191 18.8193 96.8267 19.0658 96.6824 19.3751C96.538 19.6749 96.4658 20.0519 96.4658 20.5063V20.6948ZM112.094 22.6962L110.55 20.5933C111.156 20.1582 111.604 19.7329 111.892 19.3171C112.191 18.9013 112.34 18.4325 112.34 17.9104C112.34 17.6106 112.287 17.3303 112.181 17.0693C112.085 16.8082 111.931 16.581 111.719 16.3876C111.507 16.1846 111.238 16.0299 110.911 15.9236C110.593 15.8075 110.213 15.7495 109.77 15.7495C109.385 15.7495 109.029 15.8028 108.702 15.9091C108.384 16.0058 108.11 16.1508 107.879 16.3441C107.648 16.5279 107.466 16.755 107.331 17.0257C107.206 17.2868 107.143 17.5866 107.143 17.9249C107.143 18.0699 107.153 18.2102 107.172 18.3455C107.191 18.4808 107.225 18.621 107.273 18.766C107.321 18.911 107.388 19.0658 107.475 19.2301C107.571 19.3944 107.692 19.5829 107.836 19.7957L108.197 20.3323C107.552 20.7383 107.042 21.1879 106.667 21.681C106.301 22.1644 106.118 22.7107 106.118 23.3198C106.118 23.6098 106.161 23.9289 106.248 24.2769C106.335 24.625 106.493 24.9488 106.724 25.2486C106.955 25.5483 107.278 25.7949 107.692 25.9882C108.105 26.1719 108.635 26.2637 109.279 26.2637C109.799 26.2637 110.276 26.1815 110.709 26.0172C111.151 25.8529 111.502 25.6159 111.762 25.3066L112.34 26.1042H114.548L113.191 24.1899C113.499 23.7451 113.75 23.2665 113.942 22.7542C114.144 22.2321 114.245 21.6907 114.245 21.1299H112.455C112.455 21.3522 112.422 21.6133 112.354 21.913C112.287 22.2128 112.2 22.4738 112.094 22.6962ZM109.164 21.565L110.896 24.0304C110.55 24.4654 110.102 24.683 109.554 24.683C109.323 24.683 109.116 24.6443 108.933 24.567C108.75 24.4799 108.596 24.3736 108.471 24.2479C108.356 24.1126 108.264 23.9626 108.197 23.7983C108.139 23.634 108.11 23.4745 108.11 23.3198C108.11 23.0007 108.182 22.7059 108.327 22.4351C108.481 22.1644 108.76 21.8743 109.164 21.565ZM108.846 17.8669C108.846 17.5961 108.928 17.3883 109.092 17.2433C109.265 17.0983 109.477 17.0257 109.727 17.0257C109.996 17.0257 110.213 17.103 110.377 17.2578C110.55 17.4028 110.636 17.6156 110.636 17.8959C110.636 18.0796 110.584 18.2682 110.478 18.4615C110.381 18.6452 110.218 18.8338 109.987 19.0271L109.611 19.3461L109.366 18.9981C109.02 18.534 108.846 18.1569 108.846 17.8669ZM118.446 15.7495V26.1042H120.351V17.8379H120.38L122.214 26.1042H123.83L125.663 17.8379H125.692V26.1042H127.598V15.7495H124.523L123.036 23.0587H123.007L121.535 15.7495H118.446ZM128.958 15.6335V17.3448H130.95V15.6335H128.958ZM128.958 18.302V26.1042H130.95V18.302H128.958ZM136.193 25.2776V26.1042H138.099V15.7495H136.107V19.0271H136.078C135.866 18.7177 135.626 18.4857 135.356 18.331C135.096 18.1762 134.779 18.0989 134.404 18.0989C133.586 18.0989 132.984 18.4228 132.599 19.0706C132.214 19.7087 132.022 20.7528 132.022 22.2031C132.022 23.6533 132.214 24.6927 132.599 25.3211C132.984 25.9495 133.586 26.2637 134.404 26.2637C134.808 26.2637 135.145 26.1912 135.414 26.0462C135.693 25.9012 135.943 25.6449 136.165 25.2776H136.193ZM134.014 22.2031C134.014 21.3522 134.076 20.7141 134.201 20.2888C134.336 19.8537 134.62 19.6362 135.053 19.6362C135.496 19.6362 135.78 19.8537 135.905 20.2888C136.04 20.7141 136.107 21.3522 136.107 22.2031C136.107 23.0539 136.04 23.6968 135.905 24.1319C135.78 24.5572 135.496 24.77 135.053 24.77C134.62 24.77 134.336 24.5572 134.201 24.1319C134.076 23.6968 134.014 23.0539 134.014 22.2031ZM143.267 25.2776V26.1042H145.173V15.7495H143.18V19.0271H143.151C142.939 18.7177 142.699 18.4857 142.429 18.331C142.17 18.1762 141.852 18.0989 141.477 18.0989C140.659 18.0989 140.057 18.4228 139.672 19.0706C139.287 19.7087 139.095 20.7528 139.095 22.2031C139.095 23.6533 139.287 24.6927 139.672 25.3211C140.057 25.9495 140.659 26.2637 141.477 26.2637C141.881 26.2637 142.218 26.1912 142.487 26.0462C142.766 25.9012 143.017 25.6449 143.238 25.2776H143.267ZM141.087 22.2031C141.087 21.3522 141.149 20.7141 141.275 20.2888C141.409 19.8537 141.693 19.6362 142.126 19.6362C142.569 19.6362 142.853 19.8537 142.978 20.2888C143.113 20.7141 143.18 21.3522 143.18 22.2031C143.18 23.0539 143.113 23.6968 142.978 24.1319C142.853 24.5572 142.569 24.77 142.126 24.77C141.693 24.77 141.409 24.5572 141.275 24.1319C141.149 23.6968 141.087 23.0539 141.087 22.2031ZM146.429 15.7495V26.1042H148.421V15.7495H146.429ZM153.418 21.3184H151.383V21.0139C151.383 20.8301 151.397 20.6465 151.426 20.4628C151.465 20.2791 151.523 20.1147 151.599 19.9697C151.676 19.815 151.777 19.6942 151.903 19.6072C152.037 19.5104 152.206 19.4621 152.408 19.4621C152.61 19.4621 152.773 19.5056 152.899 19.5927C153.033 19.67 153.134 19.7909 153.202 19.9552C153.278 20.11 153.332 20.3033 153.36 20.5353C153.389 20.7576 153.408 21.0187 153.418 21.3184ZM151.383 22.5076H155.324V22.0581C155.324 21.4587 155.285 20.9172 155.208 20.4338C155.132 19.9407 154.987 19.5249 154.775 19.1866C154.563 18.8385 154.27 18.5727 153.895 18.389C153.529 18.1956 153.057 18.0989 152.48 18.0989C151.806 18.0989 151.267 18.2102 150.863 18.4325C150.459 18.6548 150.146 18.9546 149.925 19.3316C149.713 19.7087 149.568 20.139 149.492 20.6223C149.424 21.1057 149.391 21.6085 149.391 22.1306C149.391 22.6236 149.41 23.1167 149.449 23.6098C149.496 24.1029 149.617 24.5477 149.809 24.944C150.001 25.3404 150.3 25.6594 150.704 25.9012C151.109 26.1429 151.672 26.2637 152.393 26.2637C153.346 26.2637 154.043 26.0269 154.486 25.5531C154.93 25.0793 155.169 24.3881 155.208 23.4793H153.418C153.36 23.9724 153.255 24.3397 153.101 24.5815C152.946 24.8232 152.701 24.944 152.364 24.944C152.181 24.944 152.028 24.8957 151.903 24.799C151.777 24.6927 151.676 24.5572 151.599 24.3929C151.523 24.2189 151.465 24.0256 151.426 23.8128C151.397 23.5905 151.383 23.3633 151.383 23.1312V22.5076ZM165.358 15.7495H159.598V26.1042H165.502V24.3929H161.677V21.6085H165.141V19.8972H161.677V17.4608H165.358V15.7495ZM169.97 22.2031V23.7403C169.97 23.9531 169.931 24.1367 169.854 24.2914C169.776 24.4462 169.675 24.5717 169.551 24.6685C169.435 24.7652 169.306 24.8377 169.161 24.886C169.017 24.9247 168.877 24.944 168.743 24.944C168.473 24.944 168.281 24.8377 168.165 24.625C168.05 24.4122 167.992 24.1561 167.992 23.8563C167.992 23.5083 168.079 23.2327 168.252 23.0297C168.425 22.8267 168.714 22.6817 169.118 22.5946C169.242 22.5656 169.382 22.5221 169.536 22.4641C169.689 22.3964 169.834 22.3094 169.97 22.2031ZM166.332 20.6948H168.122V20.4773C168.122 20.168 168.198 19.9214 168.353 19.7377C168.506 19.5539 168.737 19.4621 169.046 19.4621C169.382 19.4621 169.617 19.5492 169.753 19.7232C169.897 19.8875 169.97 20.1195 169.97 20.4193C169.97 20.6803 169.912 20.8786 169.796 21.0139C169.681 21.1492 169.473 21.2556 169.176 21.3329L168.05 21.6375C167.703 21.7342 167.404 21.8453 167.155 21.971C166.914 22.0968 166.712 22.2563 166.548 22.4496C166.394 22.6334 166.278 22.8605 166.202 23.1312C166.124 23.3923 166.086 23.7065 166.086 24.0739C166.086 24.3349 166.12 24.6007 166.188 24.8715C166.254 25.1325 166.361 25.3694 166.505 25.5821C166.649 25.7949 166.841 25.964 167.083 26.0897C167.322 26.2057 167.617 26.2637 167.963 26.2637C168.444 26.2637 168.833 26.2057 169.132 26.0897C169.44 25.964 169.71 25.6981 169.941 25.2921H169.97C169.998 25.4274 170.027 25.5676 170.056 25.7126C170.094 25.8479 170.147 25.9785 170.215 26.1042H172.12C172.024 25.8722 171.956 25.6546 171.918 25.4516C171.889 25.2486 171.875 24.9633 171.875 24.596V20.4918C171.875 20.1437 171.836 19.8247 171.759 19.5346C171.692 19.2349 171.557 18.9788 171.355 18.766C171.153 18.5533 170.869 18.389 170.504 18.2729C170.137 18.1569 169.656 18.0989 169.06 18.0989C168.685 18.0989 168.328 18.1424 167.992 18.2294C167.664 18.3067 167.376 18.4422 167.126 18.6355C166.885 18.8193 166.693 19.0658 166.548 19.3751C166.404 19.6749 166.332 20.0519 166.332 20.5063V20.6948ZM174.609 23.5518H172.819V23.8273C172.819 24.2044 172.862 24.5477 172.949 24.857C173.036 25.1568 173.184 25.4129 173.396 25.6256C173.617 25.8384 173.912 25.9979 174.277 26.1042C174.652 26.2105 175.119 26.2637 175.677 26.2637C176.1 26.2637 176.486 26.2202 176.832 26.1332C177.189 26.0462 177.492 25.9012 177.741 25.6981C178.001 25.4951 178.203 25.2438 178.348 24.944C178.492 24.6347 178.564 24.2721 178.564 23.8563C178.564 23.2665 178.434 22.8025 178.174 22.4641C177.915 22.1161 177.471 21.8357 176.846 21.623L175.648 21.2169C175.312 21.1106 175.081 20.9801 174.955 20.8254C174.84 20.6706 174.782 20.4966 174.782 20.3033C174.782 20.0229 174.873 19.815 175.056 19.6797C175.248 19.5346 175.471 19.4621 175.72 19.4621C176.048 19.4621 176.273 19.5589 176.399 19.7522C176.533 19.9359 176.601 20.2308 176.601 20.6368H178.391V20.3178C178.391 19.6119 178.174 19.0658 177.741 18.679C177.308 18.2922 176.64 18.0989 175.735 18.0989C175.225 18.0989 174.787 18.1617 174.421 18.2874C174.065 18.4132 173.772 18.5823 173.541 18.795C173.31 19.0078 173.141 19.2591 173.036 19.5492C172.93 19.8295 172.877 20.1292 172.877 20.4483C172.877 20.9994 173.017 21.4537 173.295 21.8115C173.574 22.1596 173.988 22.4303 174.537 22.6236L175.937 23.1312C176.129 23.2085 176.298 23.315 176.442 23.4503C176.587 23.576 176.659 23.7645 176.659 24.0159C176.659 24.3252 176.568 24.5572 176.385 24.712C176.201 24.8667 175.956 24.944 175.648 24.944C175.312 24.944 175.052 24.8425 174.869 24.6395C174.696 24.4267 174.609 24.1512 174.609 23.8128V23.5518ZM179.853 16.0686V18.302H178.843V19.6652H179.853V24.1319C179.853 24.5282 179.878 24.857 179.925 25.118C179.975 25.3791 180.061 25.5918 180.185 25.7562C180.321 25.9109 180.509 26.0172 180.748 26.0752C180.999 26.1235 181.317 26.1477 181.701 26.1477C181.932 26.1477 182.148 26.138 182.351 26.1187C182.563 26.109 182.779 26.1042 183 26.1042V24.712C182.934 24.7217 182.862 24.7313 182.784 24.741C182.707 24.741 182.631 24.741 182.553 24.741C182.264 24.741 182.072 24.6782 181.975 24.5525C181.889 24.4171 181.845 24.1947 181.845 23.8853V19.6652H183V18.302H181.845V16.0686H179.853Z" fill="black"/>
<path d="M70.0105 34.6026V44.9573H72.0892V40.5775H73.2007C73.6337 40.5775 73.9416 40.6936 74.1245 40.9256C74.3074 41.1576 74.4085 41.4767 74.4276 41.8828L74.4854 43.8696C74.4951 44.0726 74.5143 44.2709 74.5431 44.4642C74.572 44.6479 74.6394 44.8122 74.7452 44.9573H76.9971V44.8702C76.8047 44.7639 76.6795 44.5657 76.6218 44.2756C76.5832 43.9856 76.5544 43.565 76.5352 43.0139C76.5255 42.7336 76.516 42.4821 76.5063 42.2598C76.4966 42.0278 76.4822 41.815 76.463 41.6217C76.4053 41.0416 76.2561 40.6211 76.0155 40.36C75.7749 40.099 75.3948 39.9297 74.8751 39.8524V39.8234C75.4622 39.6977 75.8953 39.4174 76.1743 38.9823C76.4533 38.5375 76.5929 37.9671 76.5929 37.271C76.5929 36.3719 76.3523 35.7048 75.8712 35.2697C75.39 34.8249 74.7164 34.6026 73.8502 34.6026H70.0105ZM72.0892 39.1273V36.1398H73.0707C74.0331 36.1398 74.5143 36.6184 74.5143 37.5756C74.5143 38.1364 74.3796 38.5375 74.1101 38.7793C73.8406 39.0113 73.4557 39.1273 72.9553 39.1273H72.0892ZM81.5681 40.1715H79.5328V39.8669C79.5328 39.6832 79.5472 39.4996 79.5761 39.3158C79.6146 39.1321 79.6724 38.9678 79.7493 38.8228C79.8264 38.668 79.9274 38.5472 80.0524 38.4602C80.1873 38.3635 80.3556 38.3152 80.5577 38.3152C80.7598 38.3152 80.9235 38.3587 81.0485 38.4457C81.1833 38.523 81.2843 38.644 81.3516 38.8083C81.4287 38.963 81.4815 39.1563 81.5104 39.3884C81.5393 39.6107 81.5586 39.8717 81.5681 40.1715ZM79.5328 41.3607H83.4736V40.9111C83.4736 40.3117 83.4352 39.7702 83.3581 39.2868C83.2811 38.7938 83.1368 38.378 82.925 38.0396C82.7134 37.6916 82.4198 37.4258 82.0445 37.242C81.6788 37.0487 81.2073 36.952 80.6298 36.952C79.9563 36.952 79.4173 37.0632 79.0131 37.2855C78.6089 37.5078 78.2963 37.8076 78.0748 38.1847C77.8632 38.5617 77.7189 38.992 77.6418 39.4754C77.5745 39.9587 77.5407 40.4615 77.5407 40.9836C77.5407 41.4767 77.5601 41.9698 77.5985 42.4629C77.6467 42.9559 77.7669 43.4007 77.9593 43.7971C78.1519 44.1934 78.4501 44.5125 78.8543 44.7542C79.2585 44.996 79.8215 45.1168 80.5432 45.1168C81.496 45.1168 82.1937 44.88 82.6363 44.4062C83.0791 43.9324 83.3197 43.2412 83.3581 42.3323H81.5681C81.5104 42.8254 81.4046 43.1928 81.2506 43.4345C81.0967 43.6763 80.8513 43.7971 80.5144 43.7971C80.3316 43.7971 80.1776 43.7488 80.0524 43.652C79.9274 43.5457 79.8264 43.4103 79.7493 43.246C79.6724 43.072 79.6146 42.8786 79.5761 42.6659C79.5472 42.4436 79.5328 42.2163 79.5328 41.9843V41.3607ZM84.4391 34.6026V44.9573H86.4312V34.6026H84.4391ZM87.7627 34.4866V36.1978H89.7547V34.4866H87.7627ZM87.7627 37.155V44.9573H89.7547V37.155H87.7627ZM94.6371 41.0561V42.5934C94.6371 42.8061 94.5987 42.9897 94.5216 43.1445C94.4447 43.2992 94.3437 43.4248 94.2185 43.5215C94.103 43.6183 93.9731 43.6908 93.8287 43.7391C93.6844 43.7778 93.545 43.7971 93.4101 43.7971C93.1408 43.7971 92.9482 43.6908 92.8327 43.478C92.7173 43.2653 92.6595 43.0092 92.6595 42.7094C92.6595 42.3613 92.7461 42.0858 92.9193 41.8828C93.0926 41.6797 93.3813 41.5347 93.7854 41.4477C93.9106 41.4187 94.0502 41.3752 94.2041 41.3172C94.3581 41.2494 94.5024 41.1624 94.6371 41.0561ZM90.9995 39.5479H92.7894V39.3304C92.7894 39.021 92.8665 38.7745 93.0204 38.5907C93.1744 38.407 93.4054 38.3152 93.7133 38.3152C94.0502 38.3152 94.2859 38.4022 94.4206 38.5762C94.5649 38.7405 94.6371 38.9726 94.6371 39.2723C94.6371 39.5334 94.5794 39.7316 94.4639 39.8669C94.3484 40.0022 94.1416 40.1087 93.8432 40.186L92.7172 40.4905C92.3708 40.5873 92.0726 40.6984 91.8223 40.8241C91.5818 40.9498 91.3797 41.1094 91.216 41.3027C91.0621 41.4864 90.9466 41.7135 90.8695 41.9843C90.7926 42.2453 90.7541 42.5596 90.7541 42.9269C90.7541 43.188 90.7878 43.4538 90.8551 43.7246C90.9225 43.9856 91.0283 44.2224 91.1727 44.4352C91.317 44.6479 91.5096 44.817 91.7501 44.9428C91.9907 45.0588 92.2842 45.1168 92.6306 45.1168C93.1119 45.1168 93.5017 45.0588 93.7999 44.9428C94.1079 44.817 94.3773 44.5512 94.6082 44.1451H94.6371C94.666 44.2804 94.6949 44.4207 94.7237 44.5657C94.7623 44.701 94.8153 44.8315 94.8825 44.9573H96.788C96.6918 44.7252 96.6244 44.5077 96.5859 44.3046C96.557 44.1016 96.5426 43.8164 96.5426 43.449V39.3449C96.5426 38.9968 96.5042 38.6777 96.4271 38.3877C96.3598 38.0879 96.225 37.8318 96.0229 37.6191C95.8208 37.4063 95.537 37.242 95.1712 37.126C94.8056 37.01 94.3245 36.952 93.7277 36.952C93.3524 36.952 92.9964 36.9955 92.6595 37.0825C92.3324 37.1598 92.0437 37.2952 91.7934 37.4886C91.5529 37.6723 91.3603 37.9188 91.216 38.2282C91.0716 38.5279 90.9995 38.905 90.9995 39.3594V39.5479ZM97.8193 34.6026V44.9573H99.7248V44.1306H99.7536C99.9749 44.498 100.22 44.7542 100.49 44.8992C100.769 45.0443 101.111 45.1168 101.515 45.1168C102.333 45.1168 102.934 44.8025 103.319 44.1741C103.704 43.5457 103.897 42.5064 103.897 41.0561C103.897 39.6059 103.704 38.5617 103.319 37.9236C102.934 37.2758 102.333 36.952 101.515 36.952C101.139 36.952 100.817 37.0293 100.548 37.184C100.288 37.3387 100.052 37.5708 99.8403 37.8801H99.8114V34.6026H97.8193ZM99.8114 41.0561C99.8114 40.2053 99.8739 39.5672 99.999 39.1418C100.134 38.7067 100.422 38.4892 100.865 38.4892C101.298 38.4892 101.577 38.7067 101.702 39.1418C101.837 39.5672 101.904 40.2053 101.904 41.0561C101.904 41.907 101.837 42.5499 101.702 42.9849C101.577 43.4103 101.298 43.623 100.865 43.623C100.422 43.623 100.134 43.4103 99.999 42.9849C99.8739 42.5499 99.8114 41.907 99.8114 41.0561ZM104.965 34.4866V36.1978H106.957V34.4866H104.965ZM104.965 37.155V44.9573H106.957V37.155H104.965ZM108.288 34.6026V44.9573H110.28V34.6026H108.288ZM111.612 34.4866V36.1978H113.604V34.4866H111.612ZM111.612 37.155V44.9573H113.604V37.155H111.612ZM115.296 34.9216V37.155H114.285V38.5182H115.296V42.9849C115.296 43.3813 115.32 43.7101 115.368 43.9711C115.416 44.2321 115.503 44.4449 115.628 44.6092C115.763 44.7639 115.95 44.8702 116.191 44.9282C116.441 44.9765 116.759 45.0008 117.144 45.0008C117.375 45.0008 117.591 44.991 117.793 44.9718C118.005 44.962 118.222 44.9573 118.443 44.9573V43.565C118.376 43.5747 118.303 43.5843 118.226 43.594C118.149 43.594 118.072 43.594 117.995 43.594C117.707 43.594 117.514 43.5312 117.418 43.4055C117.331 43.2702 117.288 43.0477 117.288 42.7384V38.5182H118.443V37.155H117.288V34.9216H115.296ZM118.99 45.9724V47.4662H119.798C120.26 47.4662 120.64 47.4324 120.939 47.3646C121.247 47.2969 121.506 47.1519 121.718 46.9296C121.939 46.7168 122.127 46.4075 122.281 46.0014C122.445 45.6051 122.613 45.083 122.786 44.4352L124.663 37.155H122.671L121.66 42.5499H121.632L120.477 37.155H118.398L120.578 44.9573C120.549 45.2763 120.453 45.5326 120.289 45.7259C120.135 45.9192 119.875 46.0159 119.51 46.0159C119.336 46.0159 119.163 46.0014 118.99 45.9724ZM128.655 34.4866V36.1978H130.647V34.4866H128.655ZM128.655 37.155V44.9573H130.647V37.155H128.655ZM131.907 37.155V44.9573H133.899V39.7799C133.899 38.9195 134.25 38.4892 134.952 38.4892C135.251 38.4892 135.467 38.5714 135.602 38.7358C135.737 38.8905 135.804 39.1708 135.804 39.5769V44.9573H137.796V39.1708C137.796 38.3877 137.623 37.8221 137.276 37.4741C136.94 37.126 136.454 36.952 135.819 36.952C135.385 36.952 135 37.0438 134.664 37.2275C134.327 37.4015 134.053 37.6819 133.841 38.0686H133.812V37.155H131.907ZM146.127 41.0561L145.131 36.4009H145.102L144.106 41.0561H146.127ZM146.401 34.6026L149.129 44.9573H146.964L146.488 42.7674H143.745L143.269 44.9573H141.104L143.832 34.6026H146.401ZM153.383 39.9685H155.289C155.289 39.0403 155.052 38.3055 154.582 37.7641C154.12 37.2227 153.427 36.952 152.503 36.952C152.041 36.952 151.617 37.0148 151.233 37.1405C150.847 37.2662 150.515 37.4886 150.237 37.8076C149.957 38.1169 149.74 38.5375 149.587 39.0693C149.433 39.5914 149.356 40.2537 149.356 41.0561C149.356 41.8393 149.418 42.4966 149.544 43.0284C149.668 43.5505 149.851 43.9711 150.092 44.2901C150.342 44.5995 150.649 44.817 151.016 44.9428C151.391 45.0588 151.829 45.1168 152.33 45.1168C153.388 45.1168 154.143 44.851 154.596 44.3192C155.058 43.7778 155.289 42.9947 155.289 41.9698H153.383C153.383 42.6079 153.306 43.072 153.153 43.362C152.998 43.652 152.753 43.7971 152.416 43.7971C152.194 43.7971 152.012 43.7488 151.868 43.652C151.732 43.5457 151.627 43.3813 151.55 43.159C151.472 42.9366 151.42 42.6562 151.391 42.3178C151.363 41.9698 151.348 41.554 151.348 41.0706C151.348 40.6163 151.363 40.2247 151.391 39.8959C151.42 39.5576 151.472 39.2821 151.55 39.0693C151.627 38.847 151.742 38.6825 151.897 38.5762C152.05 38.4602 152.247 38.4022 152.489 38.4022C152.68 38.4022 152.835 38.4505 152.95 38.5472C153.066 38.6342 153.153 38.755 153.21 38.9098C153.277 39.0548 153.32 39.2191 153.34 39.4029C153.369 39.5866 153.383 39.7751 153.383 39.9685ZM156.616 34.9216V37.155H155.605V38.5182H156.616V42.9849C156.616 43.3813 156.639 43.7101 156.688 43.9711C156.735 44.2321 156.822 44.4449 156.948 44.6092C157.082 44.7639 157.269 44.8702 157.51 44.9282C157.76 44.9765 158.078 45.0008 158.463 45.0008C158.694 45.0008 158.911 44.991 159.113 44.9718C159.324 44.962 159.54 44.9573 159.762 44.9573V43.565C159.695 43.5747 159.622 43.5843 159.546 43.594C159.468 43.594 159.391 43.594 159.315 43.594C159.026 43.594 158.833 43.5312 158.737 43.4055C158.651 43.2702 158.608 43.0477 158.608 42.7384V38.5182H159.762V37.155H158.608V34.9216H156.616ZM160.382 34.4866V36.1978H162.374V34.4866H160.382ZM160.382 37.155V44.9573H162.374V37.155H160.382ZM165.365 41.0561C165.365 40.6598 165.375 40.2923 165.394 39.9539C165.412 39.6156 165.456 39.3256 165.523 39.0838C165.6 38.8421 165.711 38.6535 165.855 38.5182C166 38.3829 166.192 38.3152 166.433 38.3152C166.837 38.3152 167.116 38.5279 167.27 38.9533C167.425 39.3786 167.501 40.0797 167.501 41.0561C167.501 42.0326 167.425 42.7336 167.27 43.159C167.116 43.5843 166.837 43.7971 166.433 43.7971C166.192 43.7971 166 43.7293 165.855 43.594C165.711 43.4587 165.6 43.2702 165.523 43.0284C165.456 42.7867 165.412 42.4966 165.394 42.1583C165.375 41.82 165.365 41.4525 165.365 41.0561ZM163.373 41.0561C163.373 41.733 163.42 42.3323 163.517 42.8544C163.614 43.3668 163.777 43.7971 164.008 44.1451C164.239 44.4835 164.552 44.7349 164.946 44.8992C165.34 45.054 165.837 45.1265 166.433 45.1168C167 45.1168 167.477 45.0346 167.862 44.8702C168.256 44.7059 168.574 44.4545 168.815 44.1161C169.056 43.7681 169.229 43.3378 169.334 42.8254C169.44 42.313 169.493 41.7232 169.493 41.0561C169.493 40.3697 169.445 39.7702 169.349 39.2578C169.252 38.7455 169.089 38.3152 168.858 37.9671C168.627 37.6191 168.314 37.3628 167.92 37.1985C167.526 37.0245 167.029 36.9423 166.433 36.952C165.866 36.952 165.383 37.0438 164.989 37.2275C164.604 37.4015 164.292 37.6626 164.051 38.0106C163.81 38.349 163.637 38.7745 163.531 39.2868C163.426 39.7992 163.373 40.389 163.373 41.0561ZM170.424 37.155V44.9573H172.416V39.7799C172.416 38.9195 172.767 38.4892 173.47 38.4892C173.767 38.4892 173.984 38.5714 174.12 38.7358C174.254 38.8905 174.322 39.1708 174.322 39.5769V44.9573H176.314V39.1708C176.314 38.3877 176.14 37.8221 175.794 37.4741C175.456 37.126 174.971 36.952 174.336 36.952C173.903 36.952 173.518 37.0438 173.181 37.2275C172.843 37.4015 172.569 37.6819 172.358 38.0686H172.33V37.155H170.424Z" fill="#ED3024"/>
<path d="M58.4622 14.5023V44.9572" stroke="black"/>
</svg>
