<svg width="18" height="18" viewBox="0 0 22 22" fill="none" xmlns="http://www.w3.org/2000/svg">
<path d="M4.95604 18.0099V17.2713C4.95604 17.2713 4.86985 16.8829 4.49156 16.8829H0.414201C0.414201 16.8829 0 16.9115 0 17.307V19.1582C0 19.1582 0.0119711 19.5466 0.486027 19.5466H3.42134V20.0517H0V20.8213C0 20.8213 0.0526729 21.2025 0.414201 21.2025H4.54663C4.54663 21.2025 4.95604 21.1548 4.95604 20.7355V18.9415C4.95604 18.9415 4.90097 18.4983 4.45325 18.4983H1.52512V18.0123L4.95604 18.0099Z" fill="#231F20"/>
<path d="M8.69819 18.4124H7.61597V19.649H8.69819C8.77002 19.649 8.83225 19.5918 8.83225 19.5179V18.5435C8.83225 18.472 8.7724 18.4124 8.69819 18.4124Z" fill="#ED3024"/>
<path d="M9.16028 16.8852H5.68628V21.2048H9.26084C9.26084 21.2048 10.7477 21.119 10.7477 19.5966V18.3291C10.7477 18.3291 10.6279 16.8852 9.16028 16.8852ZM9.23449 19.5465C9.23449 19.9301 8.82993 20.0374 8.82993 20.0374H7.21377V18.0122H8.7054C9.14591 18.0122 9.23449 18.4744 9.23449 18.4744V19.5465ZM12.9456 20.0374V16.8876H11.8179C11.5976 16.8876 11.4205 17.0639 11.4205 17.2808V20.8117C11.4205 21.0285 11.6 21.2048 11.8179 21.2048H15.8187C16.0389 21.2048 16.2161 21.0309 16.2161 20.8117V20.0374H12.9456ZM19.3789 18.503V19.5394H20.2742V20.0374H18.2511V18.0098H21.7875V17.2688C21.7875 17.052 21.6102 16.8757 21.39 16.8757H17.145C16.9248 16.8757 16.7476 17.0496 16.7476 17.2688V20.8117C16.7476 21.0285 16.9248 21.2048 17.145 21.2048H21.39C21.6102 21.2048 21.7875 21.0309 21.7875 20.8117V18.503H19.3789Z" fill="#231F20"/>
<path d="M11.1377 0L21.6819 16.6755L11.1377 11.7412V0Z" fill="#ED3024"/>
<path d="M10.6375 0L0.145996 16.6755L10.6375 11.7412V0Z" fill="#231F20"/>
</svg>
