<svg width="30" height="30" viewBox="0 0 30 30" fill="none" xmlns="http://www.w3.org/2000/svg">
<path d="M15 30C6.717 30 0 23.283 0 15C0 6.717 6.717 0 15 0C23.283 0 30 6.717 30 15C30 23.283 23.283 30 15 30Z" fill="black"/>
<path d="M24.5701 10.335C24.7081 9.87001 24.5701 9.53101 23.9071 9.53101H21.7201C21.1651 9.53101 20.9071 9.82501 20.7691 10.149C20.7691 10.149 19.6561 12.861 18.0811 14.622C17.5711 15.132 17.3401 15.294 17.0611 15.294C16.9231 15.294 16.7221 15.132 16.7221 14.667V10.335C16.7221 9.78001 16.5601 9.53101 16.0981 9.53101H12.6601C12.3121 9.53101 12.1021 9.78901 12.1021 10.035C12.1021 10.563 12.8911 10.683 12.9721 12.168V15.39C12.9721 16.095 12.8431 16.224 12.5671 16.224C11.8261 16.224 10.0231 13.5 8.95211 10.383C8.74211 9.77701 8.53211 9.53401 7.97411 9.53401H5.78711C5.16311 9.53401 5.03711 9.82801 5.03711 10.152C5.03711 10.731 5.77811 13.605 8.49011 17.406C10.2991 20.001 12.8431 21.408 15.1621 21.408C16.5511 21.408 16.7251 21.096 16.7251 20.556V18.594C16.7251 17.97 16.8571 17.844 17.2981 17.844C17.6221 17.844 18.1801 18.006 19.4761 19.257C20.9581 20.739 21.2041 21.405 22.0381 21.405H24.2251C24.8491 21.405 25.1611 21.093 24.9811 20.475C24.7831 19.86 24.0751 18.969 23.1361 17.91C22.6261 17.307 21.8611 16.659 21.6301 16.335C21.3061 15.918 21.3991 15.732 21.6301 15.363C21.6271 15.363 24.2911 11.61 24.5701 10.335Z" fill="white"/>
</svg>
