<svg width="196" height="17" viewBox="0 0 196 17" fill="none" xmlns="http://www.w3.org/2000/svg">
<path d="M3.29825 2.39451L10.0375 15.5504H17.8331L24.4514 2.38591H27.7696V0H17.7876V2.38379H20.6696L15.851 11.9662L10.9671 2.38591H14.4695V0.00212999H0V2.38808L3.29825 2.39451Z" fill="black"/>
<path d="M57.8542 0C51.1507 0 47.5909 3.59714 47.5909 8.1113C47.5909 12.6877 51.0199 16.3364 57.8979 16.3364C64.7758 16.3364 68.1613 12.6856 68.1613 8.1113C68.1575 3.59714 64.5579 0 57.8542 0ZM57.7809 13.8668C55.333 13.8195 54.2569 10.9074 54.3044 8.01682C54.352 5.02098 55.6918 2.40956 57.9773 2.4525C60.2626 2.49545 61.4816 5.15843 61.432 8.15212C61.3844 10.9762 60.3003 13.9162 57.7789 13.8668H57.7809Z" fill="black"/>
<path d="M87.9864 2.3795V0H101.338V2.37734H98.0081V13.1151H101.09C101.697 13.1687 102.308 13.0844 102.883 12.8675C103.458 12.6507 103.985 12.3062 104.43 11.856C104.875 11.4058 105.229 10.8599 105.468 10.2532C105.707 9.64642 105.827 8.99227 105.82 8.33252H108.022V15.5225H87.9825V13.1151H91.3521V2.37734L87.9864 2.3795Z" fill="black"/>
<path d="M131.139 2.39451L137.878 15.5504H145.674L152.292 2.38591H155.608V0H145.63V2.38379H148.512L143.694 11.9662L138.81 2.38591H142.312V0.00212999H127.843V2.38808L131.139 2.39451Z" fill="black"/>
<path d="M185.693 0C178.989 0 175.43 3.59714 175.43 8.1113C175.43 12.6877 178.859 16.3364 185.737 16.3364C192.614 16.3364 196 12.6856 196 8.1113C195.996 3.59714 192.397 0 185.693 0ZM185.62 13.8668C183.172 13.8195 182.095 10.9074 182.143 8.01682C182.191 5.02098 183.53 2.40956 185.818 2.4525C188.105 2.49545 189.322 5.15843 189.273 8.15212C189.223 10.9762 188.139 13.9162 185.62 13.8668Z" fill="black"/>
</svg>
